<svg xmlns="http://www.w3.org/2000/svg" fill="none" viewBox="0 0 24 24" stroke-width="1.5" stroke="currentColor" class="w-6 h-6"><path d="M11.32 2.28A9.74 9.74 0 0 0 3.258 7.7c-.46.94-.762 1.914-.924 2.98-.097.636-.097 2.004 0 2.64.446 2.941 2.052 5.409 4.533 6.968 1.075.676 2.441 1.17 3.813 1.378.636.097 2.004.097 2.64 0 2.1-.319 3.932-1.206 5.405-2.618 1.601-1.534 2.6-3.479 2.941-5.728.097-.636.097-2.004 0-2.64-.443-2.919-2.04-5.389-4.49-6.941-.824-.522-2.118-1.053-3.056-1.253a10.872 10.872 0 0 0-2.8-.206m2 1.578a8.277 8.277 0 0 1 4.628 2.435c1.176 1.231 1.913 2.713 2.2 4.423.1.593.1 1.975 0 2.568-.612 3.649-3.463 6.426-7.08 6.895-3.771.489-7.369-1.653-8.767-5.219a9.164 9.164 0 0 1-.449-1.676c-.1-.593-.1-1.975 0-2.568.299-1.783 1.066-3.282 2.324-4.54 1.389-1.388 2.977-2.138 5.064-2.391.313-.038 1.715.011 2.08.073m-1.521 1.418c-.212.043-.39.165-.468.322-.066.132-.071.366-.071 3.402 0 3.216.001 3.262.083 3.417a.59.59 0 0 0 .24.24c.154.081.208.083 2.677.083 2.448 0 2.524-.002 2.656-.08.251-.148.304-.262.304-.66s-.053-.512-.304-.66c-.13-.077-.22-.081-2.145-.092l-2.009-.012-.011-2.748c-.01-2.545-.016-2.759-.082-2.891-.123-.246-.516-.391-.87-.321" fill-rule="evenodd" fill="#000" stroke="none"/></svg>