<svg xmlns="http://www.w3.org/2000/svg" fill="none" viewBox="0 0 24 24" stroke-width="1.5" stroke="currentColor" class="w-6 h-6"><path d="M10.44 2.28c-.603.082-1.163.484-1.411 1.014-.122.26-.16.418-.288 1.186-.057.341-.123.67-.147.73-.027.067-.136.166-.28.254-.408.247-.42.247-1.098-.009a21.351 21.351 0 0 0-.836-.3 2.076 2.076 0 0 0-1.095 0c-.641.2-.845.429-1.697 1.911a35.774 35.774 0 0 0-.764 1.374 1.835 1.835 0 0 0 .147 1.768c.124.184.336.391.789.769.341.284.642.554.669.6.063.109.063.737 0 .848-.027.046-.328.316-.669.6-.455.378-.665.582-.789.767a1.842 1.842 0 0 0-.159 1.745c.048.114.393.737.766 1.383.498.862.74 1.241.909 1.421.369.394.825.59 1.37.587.297-.002.477-.052 1.276-.353.326-.123.655-.223.731-.223.19 0 .67.287.73.437.024.061.09.39.147.731.178 1.07.262 1.287.637 1.66.291.29.567.444.931.521.389.083 2.993.083 3.382 0a1.89 1.89 0 0 0 1.42-1.381c.025-.099.091-.459.148-.8.057-.341.123-.67.147-.731.06-.15.54-.437.73-.437.076 0 .405.1.731.223.822.309.954.345 1.274.348.349.004.612-.059.91-.215.408-.213.623-.494 1.371-1.788.373-.646.718-1.269.766-1.383a1.842 1.842 0 0 0-.159-1.745c-.124-.185-.334-.389-.789-.767-.341-.284-.642-.554-.669-.6-.063-.111-.063-.739 0-.848.027-.046.328-.316.669-.6.453-.378.665-.585.789-.769a1.841 1.841 0 0 0 .159-1.744c-.048-.114-.392-.734-.763-1.378-.865-1.502-1.068-1.731-1.71-1.931a2.076 2.076 0 0 0-1.095 0c-.132.041-.508.176-.836.3-.678.256-.69.256-1.098.009-.144-.088-.253-.187-.28-.254a7.355 7.355 0 0 1-.147-.73c-.179-1.076-.261-1.287-.644-1.666a1.797 1.797 0 0 0-1.062-.534c-.339-.044-2.787-.044-3.113 0m3.099 1.57c.093.082.116.166.242.91.117.689.161.865.278 1.104.174.355.49.675.905.919.408.239.709.341 1.083.367.375.026.495-.003 1.386-.333.381-.141.727-.257.769-.257.152 0 .325.238.901 1.24.782 1.36.75 1.296.72 1.459-.022.117-.12.216-.674.678-.614.511-.795.708-.962 1.045-.25.504-.25 1.532 0 2.036.169.341.346.534.962 1.046.554.461.652.559.674.677.031.164.059.106-.72 1.459-.579 1.005-.75 1.24-.901 1.24-.042 0-.388-.115-.769-.256-.381-.141-.806-.279-.945-.306-.495-.097-.96.009-1.528.347-.43.256-.727.556-.901.911-.117.239-.161.415-.278 1.104-.126.744-.149.828-.242.91-.103.09-.108.09-1.539.09-1.431 0-1.436 0-1.539-.09-.093-.082-.116-.166-.242-.91-.117-.689-.161-.865-.278-1.104-.174-.355-.471-.655-.901-.911-.568-.338-1.033-.444-1.528-.347-.139.027-.564.165-.945.306s-.727.256-.769.256c-.152 0-.325-.238-.901-1.24-.782-1.36-.75-1.296-.72-1.459.022-.118.12-.216.674-.677.952-.792 1.148-1.144 1.148-2.064 0-.453-.078-.811-.241-1.116-.169-.316-.3-.451-.966-1.001-.503-.414-.592-.504-.615-.623-.031-.165-.063-.099.72-1.46.576-1.002.749-1.24.901-1.24.042 0 .388.116.769.257.891.33 1.011.359 1.386.333.786-.055 1.662-.621 1.988-1.286.117-.239.161-.415.278-1.104.126-.744.149-.828.242-.91.103-.09.108-.09 1.539-.09 1.431 0 1.436 0 1.539.09m-1.944 4.432c-.46.05-.773.142-1.215.357-1.06.514-1.74 1.36-2.03 2.521a4.03 4.03 0 0 0 0 1.68c.183.733.493 1.287 1.008 1.802.73.73 1.606 1.092 2.642 1.092 1.036 0 1.912-.362 2.642-1.092.73-.73 1.092-1.606 1.092-2.642 0-1.589-.926-2.924-2.441-3.515-.441-.173-1.171-.26-1.698-.203m.961 1.54c.378.089.707.281 1.024.598.454.454.659.945.659 1.58 0 .635-.205 1.126-.659 1.58-.456.456-.944.66-1.58.66-.636 0-1.124-.204-1.58-.66-.454-.454-.659-.945-.659-1.58 0-.635.205-1.126.659-1.58.31-.31.646-.509 1.005-.597a2.87 2.87 0 0 1 1.131-.001" fill-rule="evenodd" fill="#000" stroke="none"/></svg>