<svg xmlns="http://www.w3.org/2000/svg" fill="none" viewBox="0 0 24 24" stroke-width="1.5" stroke="currentColor" class="w-6 h-6"><path d="M11.68 2.267c-2.052.106-3.871 1.084-5.125 2.753-.617.821-1.066 1.919-1.235 3.02-.025.165-.062.822-.081 1.46-.02.638-.062 1.322-.094 1.52a8.27 8.27 0 0 1-1.888 4.096c-.426.504-.466.768-.169 1.107.167.191.29.247 1.152.529 1.223.4 2.593.737 3.844.945l.144.024.024.43c.078 1.397.857 2.591 2.092 3.205a3.698 3.698 0 0 0 3.312 0c1.239-.616 2.012-1.807 2.093-3.222l.023-.413.144-.024a38.17 38.17 0 0 0 2.504-.539c.8-.218 2.121-.656 2.319-.769a.922.922 0 0 0 .254-.23c.08-.117.092-.174.075-.363-.024-.273-.086-.398-.361-.723a8.26 8.26 0 0 1-1.852-4.053c-.032-.198-.074-.882-.094-1.52-.019-.638-.056-1.295-.081-1.46-.338-2.197-1.628-4-3.605-5.038-.988-.518-2.26-.794-3.395-.735M12.8 3.82c1.668.25 3.141 1.335 3.911 2.88.175.352.383.966.45 1.328.023.127.058.763.078 1.412.044 1.478.121 2.079.387 2.996.246.852.731 1.923 1.17 2.584.132.198.227.372.212.387-.035.034-.856.276-1.388.408a23.597 23.597 0 0 1-8.972.443 24.446 24.446 0 0 1-2.268-.443c-.531-.132-1.353-.374-1.388-.408-.015-.015.05-.144.145-.287a9.698 9.698 0 0 0 1.338-3.089c.214-.884.285-1.555.285-2.681 0-.871.063-1.371.245-1.939a5.16 5.16 0 0 1 1.294-2.112A5.211 5.211 0 0 1 12.8 3.82M12 17.98c.605 0 1.357-.015 1.67-.033l.57-.033v.187c0 .238-.098.62-.228.884a2.257 2.257 0 0 1-2.992 1.032c-.685-.326-1.195-1.073-1.251-1.83l-.02-.273.575.033c.317.018 1.071.033 1.676.033" fill-rule="evenodd" fill="#000" stroke="none"/></svg>